<svg xmlns="http://www.w3.org/2000/svg" xmlns:xlink="http://www.w3.org/1999/xlink" version="1.1" x="0px" y="0px" viewBox="0 0 100 125" enable-background="new 0 0 100 100" fill="#ffffff" xml:space="preserve"><g><path d="M99.4,72.1c-1.2-8.4-4.5-16.7-12.2-19.3c3-1.9,5-5.2,5-9c0-5.8-4.7-10.5-10.5-10.5c-5.8,0-10.5,4.7-10.5,10.5   c0,3.8,2,7.1,5,9c-2.2,0.8-4,2-5.6,3.5c2.1,4,3.6,8.9,4.4,14.7c0.2,1.4,0,2.8-0.7,4.1h22.6C98.4,75.1,99.6,73.7,99.4,72.1z    M81.6,40.4c-1.9,0-3.4,1.5-3.4,3.4c0,0.9-0.7,1.6-1.6,1.6c-0.9,0-1.6-0.7-1.6-1.6c0-3.6,3-6.6,6.6-6.6c0.9,0,1.6,0.7,1.6,1.6   C83.2,39.7,82.5,40.4,81.6,40.4z M56.7,48.3c3.6-2.2,6-6.2,6-10.8c0-7-5.7-12.7-12.7-12.7c-7,0-12.7,5.7-12.7,12.7   c0,4.5,2.4,8.5,6,10.8c-9.2,3.2-13.2,13.1-14.6,23.2c-0.3,1.9,1.2,3.6,3.1,3.6h36.5c1.9,0,3.4-1.7,3.1-3.6   C69.8,61.4,65.9,51.5,56.7,48.3z M50,33.4c-2.3,0-4.1,1.9-4.1,4.1c0,1-0.8,1.9-1.9,1.9c-1,0-1.9-0.8-1.9-1.9c0-4.4,3.5-7.9,7.9-7.9   c1,0,1.9,0.8,1.9,1.9C51.9,32.6,51,33.4,50,33.4z M99.4,72.1c-1.2-8.4-4.5-16.7-12.2-19.3c3-1.9,5-5.2,5-9   c0-5.8-4.7-10.5-10.5-10.5c-5.8,0-10.5,4.7-10.5,10.5c0,3.8,2,7.1,5,9c-2.2,0.8-4,2-5.6,3.5c2.1,4,3.6,8.9,4.4,14.7   c0.2,1.4,0,2.8-0.7,4.1h22.6C98.4,75.1,99.6,73.7,99.4,72.1z M81.6,40.4c-1.9,0-3.4,1.5-3.4,3.4c0,0.9-0.7,1.6-1.6,1.6   c-0.9,0-1.6-0.7-1.6-1.6c0-3.6,3-6.6,6.6-6.6c0.9,0,1.6,0.7,1.6,1.6C83.2,39.7,82.5,40.4,81.6,40.4z M25.1,71   c0.9-5.8,2.3-10.7,4.4-14.7c-1.5-1.5-3.4-2.8-5.6-3.5c3-1.9,5-5.2,5-9c0-5.8-4.7-10.5-10.5-10.5S7.9,38,7.9,43.8c0,3.8,2,7.1,5,9   c-7.7,2.7-11,10.9-12.2,19.3c-0.2,1.6,1,3,2.6,3h22.6C25.1,73.9,24.9,72.4,25.1,71z M18.4,40.4c-1.9,0-3.4,1.5-3.4,3.4   c0,0.9-0.7,1.6-1.6,1.6c-0.9,0-1.6-0.7-1.6-1.6c0-3.6,3-6.6,6.6-6.6c0.9,0,1.6,0.7,1.6,1.6C20,39.7,19.3,40.4,18.4,40.4z"/></g></svg>