<svg xmlns="http://www.w3.org/2000/svg" xmlns:xlink="http://www.w3.org/1999/xlink" xml:space="preserve" version="1.1" style="shape-rendering:geometricPrecision;text-rendering:geometricPrecision;image-rendering:optimizeQuality;" viewBox="0 0 405 477.5" x="0px" y="0px" fill-rule="evenodd" clip-rule="evenodd"><defs><style type="text/css">
   
    .fil0 {fill:#ffffff}
   
  </style></defs><g><path class="fil0" d="M208 2l194 161c6,5 2,15 -6,15l-45 0 0 195c0,5 -4,9 -9,9l-94 0c-5,0 -9,-4 -9,-9l0 -113c0,-5 -3,-9 -8,-9l-57 0c-5,0 -9,4 -9,9l0 113c0,5 -3,9 -8,9l-94 0c-5,0 -9,-4 -9,-9l0 -195 -46 0c-7,0 -11,-10 -5,-15l194 -161c3,-3 8,-3 11,0z"/></g></svg>