<svg xmlns="http://www.w3.org/2000/svg" data-name="Bahan copy" viewBox="0 0 32 40" x="0px" y="0px" fill="#ffffff"><path d="m28,9.03003l-6.59998,5.65997,6.59998,5.77997,2,1.76001v-13.32996c0-.48004-.13-.92004-.34003-1.30005l-1.65997,1.43005Z"/><path d="m29.58002,24.52002l-1.58002-1.39001-8.13-7.12-1.37,1.16998c-.71997.62-1.60999.91998-2.5.91998s-1.77002-.29999-2.5-.91998l-1.37-1.16998-8.13,7.12-1.58002,1.39001c.47003.70996,1.27002,1.17999,2.17999,1.17999h22.80005c.90997,0,1.70996-.47003,2.17999-1.17999Z"/><path d="m10.59998,14.69l-6.59998-5.65997-1.65997-1.43005c-.21002.38-.34003.82001-.34003,1.30005v13.31995l2-1.75,6.59998-5.77997Z"/><path d="m12.70001,13.85999c.06.04004.13.10004.17999.16003l1.91998,1.63995c.69.59003,1.70001.59003,2.40002,0l1.91998-1.63995c.04999-.06.12-.12.17999-.16003l6.48004-5.56,2.23999-1.91998c-.20001-.04999-.40002-.08002-.62-.08002H4.59998c-.21997,0-.41998.03003-.62.08002l2.23999,1.91998,6.48004,5.56Z"/></svg>