<svg xmlns="http://www.w3.org/2000/svg" xmlns:xlink="http://www.w3.org/1999/xlink" version="1.1" x="0px" y="0px" viewBox="0 0 64 80" enable-background="new 0 0 64 64" fill="#ffffff" xml:space="preserve"><metadata><?xpacket begin="&#65279;" id="W5M0MpCehiHzreSzNTczkc9d"?><x:xmpmeta xmlns:x="adobe:ns:meta/" x:xmptk="Adobe XMP Core 5.3-c011 66.145661, 2012/02/06-14:56:27        "/><?xpacket end="w"?></metadata><g><g><path d="M28,29c0,1.586,0.942,3.023,2.401,3.662C30.765,32.821,31,33.181,31,33.578V38c0,0.552,0.449,1,1,1s1-0.448,1-1v-4.422    c0-0.397,0.235-0.757,0.599-0.916C35.058,32.023,36,30.586,36,29c0-2.206-1.794-4-4-4S28,26.794,28,29z"/><path d="M13,14.71V38c0,11.281,16.595,17.158,19,17.95c2.405-0.792,19-6.669,19-17.95V14.71L32,8.06L13,14.71z M38,29    c0,2.155-1.158,4.127-3,5.191V38c0,1.654-1.346,3-3,3s-3-1.346-3-3v-3.809c-1.842-1.064-3-3.036-3-5.191c0-3.309,2.691-6,6-6    S38,25.691,38,29z"/><path d="M54.313,7.393l-20-6.999c-1.49-0.523-3.135-0.522-4.625-0.001l-20,7C6.884,8.374,5,11.029,5,14v24    c0,17.989,23.968,25.398,24.988,25.705C30.64,63.9,31.317,64,32,64s1.36-0.1,2.012-0.295C35.032,63.398,59,55.989,59,38V14    C59,11.029,57.116,8.374,54.313,7.393z M53,38c0,13.588-19.867,19.704-20.713,19.958C32.194,57.986,32.097,58,32,58    s-0.194-0.014-0.287-0.042C30.867,57.704,11,51.588,11,38V14c0-0.425,0.269-0.804,0.669-0.944l20-7    c0.214-0.074,0.447-0.074,0.661,0l20,7C52.731,13.196,53,13.575,53,14V38z"/></g></g></svg>