<svg xmlns="http://www.w3.org/2000/svg" xmlns:xlink="http://www.w3.org/1999/xlink" xml:space="preserve" style="shape-rendering:geometricPrecision;text-rendering:geometricPrecision;image-rendering:optimizeQuality;" viewBox="0 0 100 125" x="0px" y="0px" fill-rule="evenodd" clip-rule="evenodd"><defs><style type="text/css">
   
    .fil0 {fill:#ffffff}
   
  </style></defs><g><path class="fil0" d="M49.9988 4.99965c24.8482,0 45.0004,20.1521 45.0004,44.9992 0,24.8482 -20.1521,45.0004 -45.0004,45.0004 -24.847,0 -45.0004,-20.1521 -45.0004,-45.0004 0,-24.847 20.1533,-44.9992 45.0004,-44.9992zm-30.4857 65.4548c5.89138,-4.24373 11.0776,-9.57409 18.7962,-12.4099 3.49373,1.83781 7.46817,2.87719 11.6895,2.87719 4.16814,0 8.10243,-1.01221 11.5631,-2.8075 8.27841,3.06853 14.1745,8.85834 18.925,12.3367 -13.7446,20.4368 -46.9267,20.895 -60.9737,0.00354333zm30.4857 -51.8803c9.49023,0 17.1875,7.6973 17.1875,17.1887 0,9.49141 -7.6973,17.1875 -17.1875,17.1875 -9.49141,0 -17.1887,-7.69612 -17.1887,-17.1875 0,-9.49141 7.6973,-17.1887 17.1887,-17.1887z"/></g></svg>