<svg xmlns="http://www.w3.org/2000/svg" xmlns:xlink="http://www.w3.org/1999/xlink" version="1.0" x="0px" y="0px" viewBox="0 0 100 125" enable-background="new 0 0 100 100" xml:space="preserve" fill="#ffffff"><path d="M37.291,56.988c3.1,7.484,11.68,11.039,19.164,7.939c7.483-3.1,11.037-11.68,7.938-19.164s-11.68-11.037-19.164-7.938  S34.191,49.506,37.291,56.988L37.291,56.988z M17.312,46.346l3.556-1.473l3.441-1.426c2.041-0.846,3.01-3.186,2.165-5.227  l-1.425-3.441l-1.473-3.557c-0.638-1.539-0.243-3.25,0.867-4.359l1.885-1.887c1.11-1.109,2.82-1.504,4.361-0.865l3.553,1.471  l3.444,1.428c1.02,0.422,2.115,0.391,3.061,0c0.946-0.393,1.743-1.145,2.166-2.166l1.427-3.443l1.472-3.553  c0.638-1.541,2.126-2.471,3.696-2.471h2.667c1.569,0,3.059,0.93,3.696,2.471l1.473,3.555l1.427,3.441  c0.845,2.041,3.186,3.012,5.227,2.166l3.44-1.426l3.556-1.473c1.541-0.639,3.251-0.242,4.361,0.867l1.885,1.885  c1.109,1.109,1.506,2.82,0.867,4.361l-1.472,3.553l-1.426,3.445c-0.846,2.041,0.124,4.381,2.165,5.227l3.443,1.426l3.553,1.473  c1.541,0.637,2.471,2.127,2.471,3.695v2.668c0,1.568-0.93,3.059-2.471,3.695l-3.556,1.473l-3.44,1.426  c-2.042,0.846-3.012,3.186-2.166,5.227l1.426,3.441l1.473,3.557c0.637,1.541,0.242,3.25-0.867,4.361l-1.886,1.885  c-1.11,1.109-2.82,1.506-4.36,0.867L67.44,77.17l-3.444-1.426c-1.02-0.424-2.115-0.393-3.061,0  c-0.947,0.391-1.744,1.145-2.166,2.164l-1.427,3.445l-1.472,3.553c-0.639,1.541-2.127,2.471-3.696,2.471h-2.667  c-1.57,0-3.059-0.93-3.697-2.471l-1.473-3.557l-1.426-3.441c-0.845-2.041-3.186-3.01-5.227-2.164l-3.441,1.424l-3.556,1.475  c-1.541,0.637-3.25,0.242-4.36-0.867l-1.886-1.887c-1.109-1.109-1.505-2.82-0.867-4.359l1.472-3.555l1.426-3.443  c0.846-2.041-0.124-4.381-2.165-5.227l-3.444-1.428l-3.553-1.471c-1.54-0.639-2.47-2.127-2.47-3.697v-2.666  C14.842,48.473,15.772,46.984,17.312,46.346L17.312,46.346z"/></svg>