<svg xmlns="http://www.w3.org/2000/svg" xmlns:xlink="http://www.w3.org/1999/xlink" version="1.1" x="0px" y="0px" viewBox="0 0 100 125" enable-background="new 0 0 100 100" fill="#ffffff" xml:space="preserve"><path d="M80.75,4.75h-61.5c-7.995,0-14.5,6.505-14.5,14.5v61.5c0,7.995,6.505,14.5,14.5,14.5h61.5c7.995,0,14.5-6.505,14.5-14.5  v-61.5C95.25,11.255,88.745,4.75,80.75,4.75z M49.958,76.333c-2.923,0-5.292-2.369-5.292-5.292s2.369-5.292,5.292-5.292  s5.292,2.369,5.292,5.292S52.881,76.333,49.958,76.333z M61.326,49.754c-3.008,2.239-6.223,4.058-6.852,8.181v2.66h-9.439v-3.146  c0.418-6.086,3.285-8.811,6.082-10.979c2.727-2.166,5.104-3.773,5.104-7.551c0-4.266-2.236-6.293-5.941-6.293  c-5.033,0-7.131,4.125-7.203,9.09H32.799c0.211-9.998,6.783-17.27,16.99-17.27c13.215,0,17.412,8.111,17.412,13.492  C67.201,44.722,64.334,47.449,61.326,49.754z"/></svg>