<svg xmlns="http://www.w3.org/2000/svg" xmlns:xlink="http://www.w3.org/1999/xlink" xml:space="preserve" version="1.1" style="shape-rendering:geometricPrecision;text-rendering:geometricPrecision;image-rendering:optimizeQuality;" viewBox="0 0 243 427.5" x="0px" y="0px" fill-rule="evenodd" clip-rule="evenodd"><defs><style type="text/css">
   
    .fil0 {fill:#ffffff}
   
  </style></defs><g><path class="fil0" d="M26 0l126 0 0 44c0,12 5,23 12,30l0 0c8,8 19,13 30,13l49 0 0 1 0 228c0,14 -12,26 -26,26l-191 0c-14,0 -26,-12 -26,-26l0 -290c0,-14 12,-26 26,-26zm35 255c-4,0 -8,-4 -8,-8 0,-5 4,-9 8,-9l121 0c4,0 8,4 8,9 0,4 -4,8 -8,8l-121 0zm0 -39c-4,0 -8,-4 -8,-9 0,-5 4,-9 8,-9l121 0c4,0 8,4 8,9 0,5 -4,9 -8,9l-121 0zm0 -40c-4,0 -8,-3 -8,-8 0,-5 4,-9 8,-9l121 0c4,0 8,4 8,9 0,5 -4,8 -8,8l-121 0zm0 -39c-4,0 -8,-4 -8,-9 0,-4 4,-8 8,-8l92 0c5,0 9,4 9,8 0,5 -4,9 -9,9l-92 0zm108 -133c2,1 3,2 4,4l62 62 -41 0c-7,0 -13,-3 -17,-8l0 0c-5,-4 -8,-11 -8,-18l0 -40z"/></g></svg>